<svg width="220" height="491" viewBox="0 0 220 491" fill="none" xmlns="http://www.w3.org/2000/svg">
<g opacity="0.4" clip-path="url(#clip0_277_1741)">
<path d="M190.373 380.1C219.194 380.07 246.826 368.619 267.206 348.259C287.586 327.899 299.049 300.293 299.078 271.5V108.6C299.078 79.7975 287.626 52.1747 267.239 31.8082C246.853 11.4418 219.203 0 190.373 0C161.542 0 133.892 11.4418 113.506 31.8082C93.1196 52.1747 81.6667 79.7975 81.6667 108.6V271.5C81.6966 300.293 93.1592 327.899 113.539 348.259C133.919 368.619 161.551 380.07 190.373 380.1Z" fill="url(#paint0_linear_277_1741)"/>
<path d="M380.471 271.501V217.201C380.471 210 377.607 203.094 372.511 198.003C367.414 192.911 360.502 190.051 353.294 190.051C346.087 190.051 339.174 192.911 334.077 198.003C328.981 203.094 326.118 210 326.118 217.201V271.501C326.118 307.504 311.802 342.032 286.319 367.49C260.836 392.949 226.274 407.251 190.235 407.251C154.197 407.251 119.635 392.949 94.152 367.49C68.6691 342.032 54.3529 307.504 54.3529 271.501V217.201C54.3529 210 51.4897 203.094 46.3931 198.003C41.2966 192.911 34.3841 190.051 27.1765 190.051C19.9688 190.051 13.0564 192.911 7.9598 198.003C2.86323 203.094 0 210 0 217.201L0 271.501C0.0771228 316.977 16.463 360.921 46.1866 395.364C75.9103 429.807 117.004 452.47 162.017 459.243L163.059 459.379V488.701H81.5294C77.9605 488.701 74.4266 489.403 71.1294 490.767C67.8322 492.132 64.8363 494.132 62.3127 496.653C59.7892 499.174 57.7874 502.167 56.4216 505.461C55.0559 508.755 54.3529 512.285 54.3529 515.851C54.3529 519.416 55.0559 522.947 56.4216 526.241C57.7874 529.535 59.7892 532.528 62.3127 535.049C64.8363 537.57 67.8322 539.57 71.1294 540.934C74.4266 542.298 77.9605 543.001 81.5294 543.001H298.941C302.51 543.001 306.044 542.298 309.341 540.934C312.638 539.57 315.634 537.57 318.158 535.049C320.681 532.528 322.683 529.535 324.049 526.241C325.415 522.947 326.118 519.416 326.118 515.851C326.118 512.285 325.415 508.755 324.049 505.461C322.683 502.167 320.681 499.174 318.158 496.653C315.634 494.132 312.638 492.132 309.341 490.767C306.044 489.403 302.51 488.701 298.941 488.701H217.412V459.379C310.038 445.6 380.312 366.775 380.471 271.523V271.501Z" fill="url(#paint1_linear_277_1741)"/>
</g>
<defs>
<linearGradient id="paint0_linear_277_1741" x1="162.413" y1="474.205" x2="432.569" y2="225.44" gradientUnits="userSpaceOnUse">
<stop stop-color="#20E391"/>
<stop offset="1" stop-color="#02D170"/>
</linearGradient>
<linearGradient id="paint1_linear_277_1741" x1="141.307" y1="630.384" x2="359.086" y2="252.452" gradientUnits="userSpaceOnUse">
<stop stop-color="#20E391"/>
<stop offset="1" stop-color="#02D170"/>
</linearGradient>
<clipPath id="clip0_277_1741">
<rect width="385" height="543" fill="white"/>
</clipPath>
</defs>
</svg>
